<?xml version="1.0" encoding="UTF-8"?>
<svg id="Layer_2" data-name="Layer 2" xmlns="http://www.w3.org/2000/svg" viewBox="0 0 464.12 400">
  <g id="Layer_1-2" data-name="Layer 1">
    <g>
      <path d="M381.01,59.74c0-32.99-26.75-59.74-59.73-59.74s-59.74,26.75-59.74,59.74,26.75,59.74,59.74,59.74,59.73-26.75,59.73-59.74ZM321.18,16.48c10.63,0,19.05,9.54,17.11,20.53-1.23,6.99-6.97,12.73-13.96,13.95-10.98,1.93-20.52-6.47-20.53-17.1h0c0-9.61,7.77-17.39,17.37-17.39h0ZM355.39,88.9h-68.79v-17.38c.02-2.73,1.29-5.3,3.44-6.95,5.08-3.69,10.77-6.44,16.81-8.11,4.56-1.52,9.33-2.3,14.14-2.32,4.79.14,9.54.92,14.13,2.32,6.13,1.43,11.86,4.2,16.82,8.11,2.22,1.59,3.51,4.2,3.44,6.95v17.38Z" fill="#ae0ae1"/>
      <path d="M321.27,400c32.99,0,59.73-26.75,59.73-59.74s-26.75-59.74-59.73-59.74-59.74,26.75-59.74,59.74,26.75,59.74,59.74,59.74ZM321.27,297c9.6,0,17.39,7.77,17.39,17.37,0,9.6-7.77,17.39-17.37,17.39-9.6,0-17.39-7.77-17.39-17.37h0c0-9.61,7.77-17.39,17.37-17.39h0ZM286.61,352.39c.02-2.73,1.29-5.3,3.44-6.95,5.08-3.69,10.77-6.44,16.81-8.11,4.56-1.52,9.33-2.3,14.14-2.32,4.79.14,9.54.92,14.13,2.32,6.13,1.43,11.86,4.2,16.82,8.11,2.22,1.59,3.51,4.2,3.44,6.95v17.38h-68.79v-17.38Z" fill="#ae0ae1"/>
      <path d="M464.12,200c0-32.99-26.75-59.74-59.73-59.74s-59.74,26.75-59.74,59.74,26.75,59.74,59.74,59.74,59.73-26.75,59.73-59.74ZM407.16,156.74c10.63,0,19.04,9.54,17.11,20.53-1.23,6.99-6.96,12.73-13.96,13.96-10.99,1.93-20.53-6.47-20.53-17.09h0c0-9.61,7.77-17.39,17.37-17.39h0ZM441.38,232.2h-68.79v-17.38c.02-2.73,1.29-5.3,3.44-6.95,5.08-3.69,10.77-6.44,16.81-8.11,4.56-1.52,9.33-2.3,14.14-2.32,4.79.14,9.54.92,14.13,2.32,6.13,1.43,11.86,4.2,16.82,8.11,2.22,1.59,3.51,4.2,3.44,6.95v17.38Z" fill="#ae0ae1"/>
      <path d="M177.7,318.18h-11.46V77.43h-11.46v-22.93H28.66v22.93H11.46v240.75H0v22.93h177.7v-22.93ZM57.32,295.25h-22.93v-22.93h22.93v22.93ZM57.32,255.13h-22.93v-22.93h22.93v22.93ZM57.32,209.27h-22.93v-22.93h22.93v22.93ZM57.32,169.15h-22.93v-22.93h22.93v22.93ZM57.32,129.02h-22.93v-22.93h22.93v22.93ZM103.18,318.18h-22.93v-45.86h22.93v45.86ZM103.18,255.13h-22.93v-22.93h22.93v22.93ZM103.18,209.27h-22.93v-22.93h22.93v22.93ZM103.18,169.15h-22.93v-22.93h22.93v22.93ZM103.18,129.02h-22.93v-22.93h22.93v22.93ZM143.3,295.25h-22.93v-22.93h22.93v22.93ZM143.3,255.13h-22.93v-22.93h22.93v22.93ZM143.3,209.27h-22.93v-22.93h22.93v22.93ZM143.3,169.15h-22.93v-22.93h22.93v22.93ZM143.3,129.02h-22.93v-22.93h22.93v22.93Z" fill="#ae0ae1"/>
      <path d="M203.87,132.95l15.98-11.72,12.28,16.76-15.98,11.72-12.28-16.76Z" fill="#ae0ae1"/>
      <path d="M235.82,109.52l15.98-11.72,12.29,16.76-15.98,11.72-12.29-16.76Z" fill="#ae0ae1"/>
      <path d="M171.9,156.39l15.98-11.72,12.28,16.76-15.98,11.72-12.29-16.76Z" fill="#ae0ae1"/>
      <path d="M235.82,290.48l12.29-16.76,15.98,11.72-12.29,16.76-15.98-11.72Z" fill="#ae0ae1"/>
      <path d="M171.9,243.6l12.29-16.76,15.98,11.72-12.28,16.75-15.98-11.72Z" fill="#ae0ae1"/>
      <path d="M203.87,267.04l12.28-16.76,15.98,11.72-12.28,16.76-15.98-11.72Z" fill="#ae0ae1"/>
      <path d="M223.55,186.34h22.93v22.93h-22.93v-22.93Z" fill="#ae0ae1"/>
      <path d="M183.43,186.34h22.93v22.93h-22.93v-22.93Z" fill="#ae0ae1"/>
      <path d="M309.54,186.34h22.93v22.93h-22.93v-22.93Z" fill="#ae0ae1"/>
      <path d="M263.68,186.34h22.93v22.93h-22.93v-22.93Z" fill="#ae0ae1"/>
    </g>
  </g>
</svg>