<?xml version="1.0" encoding="UTF-8"?>
<svg id="Layer_2" data-name="Layer 2" xmlns="http://www.w3.org/2000/svg" viewBox="0 0 400 344.62">
  <g id="Layer_1-2" data-name="Layer 1">
    <g>
      <path d="M119.39,92.31h15.99v-6.32c47.25,14.52,69.54,49.02,67.81,104.78h-12.43v36.92h36.92v-36.92h-15.39c1.46-49.63-15.46-84.74-50.49-104.92l75.08,13.67c1.18,7.35,7.58,12.77,15.1,12.78.11,0,.21-.03.32-.03l-.32,68.4c0,1.4,1.15,2.53,2.56,2.53.81,0,1.56-.38,2.05-1.01l23.58-29.33,37.92-.71c1.41,0,2.56-1.13,2.56-2.53,0-.8-.38-1.55-1.02-2.03l-55.37-41.43c6.01-7.88,3.05-19.69-7.17-23.46-4.52-1.67-9.77-1.03-13.69,1.78-1.93,1.38-3.51,3.09-4.65,5.08l-109.52-19.93v-14.24h-36.92v36.92h27.08ZM215.38,215.38h-18.46v-18.46h18.46v18.46ZM104.62,67.69h18.46v18.46h-18.46v-18.46Z" fill="#0049cc"/>
      <path d="M380,0H20C8.97.03.03,9.07,0,20.22v242.64c.03,11.15,8.97,20.19,20,20.22h140v30.77h-49.23v30.77h178.46v-30.77h-49.23v-30.77h140c11.03-.03,19.97-9.07,20-20.22V20.22c-.03-11.15-8.97-20.19-20-20.22ZM369.23,252.31H30.77V30.77h338.46v221.54Z" fill="#0049cc"/>
    </g>
  </g>
</svg>