<?xml version="1.0" encoding="UTF-8"?>
<svg id="Layer_2" data-name="Layer 2" xmlns="http://www.w3.org/2000/svg" viewBox="0 0 405.95 400">
  <g id="Layer_1-2" data-name="Layer 1">
    <path d="M340.41,235.55c-3.62,0-6.55-2.92-6.55-6.53,0-34.32-13.79-66.02-36.78-89.2-.17-.13-.32-.29-.47-.44s-.29-.3-.42-.46c-11.29-11.15-24.71-20.25-39.78-26.63l-21.01,65.2c-2.17,13.88-14.22,24.5-28.76,24.5-16.08,0-29.1-12.99-29.1-28.99,0-7.3,2.71-13.98,7.19-19.07l32.55-51.25c-3.39-.29-6.75-.42-10.1-.44-.19.02-.36.02-.54.02s-.37-.02-.56-.02c-68.62.29-126.64,55.66-126.64,126.77,0,3.61-2.93,6.53-6.55,6.53H13.89c-3.62,0-6.55-2.92-6.55-6.53v-.17c.05-54.69,22.27-104.19,58.21-140.07.05-.05.1-.12.17-.17l.17-.17c36.02-35.8,85.7-57.95,140.58-58h.34c17.99.02,35.44,2.41,52.01,6.88l16.66-26.19c1.54-2.48,4.64-3.69,7.55-2.77,3.44,1.1,5.33,4.76,4.23,8.18l-8.77,27.2c26.07,10.03,49.48,25.38,68.9,44.69.05.05.12.1.17.17.05.05.1.12.17.17,35.93,35.89,58.17,85.4,58.21,140.07v.17c0,3.61-2.93,6.53-6.55,6.53h-58.98ZM168.67,308.25c0-20.98,17.09-38.01,38.2-38.01s38.2,17.03,38.2,38.01-17.11,38.01-38.2,38.01-38.2-17.01-38.2-38.01ZM189.13,290.59c-9.8,9.75-9.8,25.57,0,35.32,9.8,9.75,25.69,9.75,35.49,0,9.8-9.75,9.8-25.57,0-35.32-9.8-9.75-25.69-9.75-35.49,0h0ZM137.18,285.08l-17.49,5.03c-3.01.59-5.28,3.23-5.28,6.4v23.42h.02c0,2.81,1.86,5.42,4.7,6.23l18.02,5.18c1.1,3.28,2.4,6.39,3.96,9.49l-8.88,16.02c-1.61,2.52-1.3,5.89.9,8.09l16.5,16.42c2,1.99,5.16,2.52,7.76,1.09l16.45-9.04c3.09,1.55,6.24,2.84,9.54,3.94l5.06,17.4c.59,2.99,3.25,5.25,6.43,5.25h23.54v-.02c2.82,0,5.45-1.85,6.26-4.69l5.21-17.97c3.3-1.1,6.43-2.39,9.54-3.94l16.08,8.85c2.54,1.6,5.92,1.3,8.13-.89l16.51-16.45c2-1.99,2.54-5.14,1.1-7.74l-9.08-16.4c1.56-3.1,2.86-6.22,3.96-9.51l17.49-5.04c3.01-.59,5.28-3.24,5.28-6.41v-23.26h-.2c0-2.81-1.86-5.42-4.7-6.23l-18.03-5.18c-1.1-3.28-2.4-6.4-3.96-9.49l8.88-16c1.61-2.52,1.3-5.89-.9-8.09l-16.51-16.43c-2-1.99-5.16-2.52-7.76-1.09l-16.45,9.04c-3.11-1.55-6.24-2.84-9.54-3.94l-5.06-17.4c-.59-3-3.25-5.25-6.43-5.25h-23.34v.02c-2.82,0-5.45,1.85-6.26,4.68l-5.21,17.94c-3.3,1.09-6.43,2.39-9.54,3.94l-16.08-8.83c-2.54-1.6-5.92-1.3-8.13.89l-16.51,16.43c-2,1.99-2.54,5.13-1.1,7.72l9.08,16.37c-1.57,3.08-2.87,6.19-3.96,9.47h0ZM151.01,285.3c-.95,2.28-1.75,4.55-2.37,6.83-.59,2.11-2.22,3.86-4.49,4.52l-16.73,4.81v13.49l16.49,4.74c2.22.56,4.07,2.24,4.73,4.59,1.12,4,3.31,9.55,5.42,13.11,1.22,1.94,1.37,4.47.19,6.61l-8.42,15.2,9.58,9.53,15.27-8.38c1.93-1.05,4.32-1.11,6.37.05,4.15,2.33,8.85,4.27,13.42,5.55,2.12.59,3.88,2.21,4.54,4.47l4.83,16.65h13.56l4.76-16.41c.56-2.21,2.25-4.05,4.61-4.71,4.02-1.11,9.59-3.29,13.17-5.4,1.95-1.21,4.47-1.37,6.64-.19l15.27,8.38,9.58-9.53-8.42-15.2c-1.05-1.91-1.12-4.3.05-6.34,2.34-4.12,4.31-8.8,5.58-13.36.59-2.11,2.22-3.86,4.49-4.52l16.73-4.81v-13.49l-16.49-4.74c-2.22-.56-4.07-2.24-4.73-4.59-1.12-4-3.31-9.55-5.42-13.11-1.22-1.94-1.37-4.45-.19-6.61l8.42-15.2-9.58-9.53-15.27,8.38c-1.92,1.05-4.32,1.11-6.37-.05-4.15-2.33-8.85-4.27-13.42-5.55-2.12-.59-3.88-2.21-4.54-4.47l-4.83-16.65h-13.56l-4.76,16.41c-.56,2.21-2.25,4.05-4.61,4.71-4.02,1.11-9.59,3.29-13.17,5.4-1.95,1.21-4.47,1.37-6.64.19l-15.27-8.38-9.58,9.53,8.42,15.2c1.05,1.91,1.12,4.3-.05,6.34-1.19,2.07-2.25,4.25-3.2,6.53h0ZM260.64,100.08c15.2,6.28,28.91,15.04,40.72,25.75l32.46-32.3c-17.03-15.8-37.05-28.46-59.1-37.05l-14.08,43.6ZM251.72,49.18c-12.32-3.03-25.12-4.83-38.27-5.29v45.71c3.94.19,7.89.54,11.88,1.06l26.39-41.48ZM229.32,154.9l30.09-93.29-52.67,82.78h.15c9.02,0,17.08,4.09,22.42,10.51h0ZM218.2,161.85c-10.05-10-27.32-2.88-27.32,11.25s17.26,21.25,27.32,11.27c6.25-6.23,6.25-16.3,0-22.52ZM310.62,135.12c21.55,23.55,34.85,54.23,36.4,87.49h45.94c-1.61-46.25-20.26-88.16-49.88-119.8l-32.46,32.31ZM80.07,93.27l32.48,32.32c23.59-21.36,54.43-34.74,87.9-36.26l-.02-45.69c-46.48,1.6-88.6,20.16-120.37,49.64h0ZM103.28,135.12l-32.46-32.3c-29.62,31.61-48.27,73.55-49.88,119.8h45.94c1.54-33.92,15.15-64.32,36.4-87.49h0ZM12.4,132.95C53.59,50.56,142.36,3.05,234.8,14.77c3.57.45,6.84-2.07,7.29-5.63.46-3.55-2.08-6.8-5.65-7.26-4.99-.64-9.9-1.11-14.72-1.41C128.23-5.46,41.73,45.09.68,127.14c-1.61,3.22-.29,7.12,2.94,8.74,3.23,1.6,7.16.29,8.77-2.93h0Z" fill="#453192" fill-rule="evenodd"/>
  </g>
</svg>