<?xml version="1.0" encoding="UTF-8"?>
<svg id="Layer_2" data-name="Layer 2" xmlns="http://www.w3.org/2000/svg" viewBox="0 0 400 399.56">
  <g id="Layer_1-2" data-name="Layer 1">
    <path d="M106.68,30.3c-4.01,2.32-5.39,7.45-3.08,11.48l.12.22c2.4,3.86,7.42,5.13,11.36,2.87l.22-.12h0c3.85-2.4,5.12-7.42,2.88-11.37-2.32-4.02-7.46-5.39-11.48-3.08h0ZM2.39,191.19c2.34-3.93,6.21-6.8,10.75-7.98,4.53-1.17,9.37-.55,13.43,1.72.1.05.2.11.29.18,3.89,2.26,6.73,5.89,7.93,10.12h52.02v-17.53l-25.99-.14v-.16c-1.28.05-2.53-.42-3.45-1.31-.92-.89-1.44-2.11-1.43-3.39,0-1.28.53-2.5,1.46-3.38.93-.88,2.18-1.34,3.46-1.28l25.95.14v-17.06h-42.31s-5.51-1.02-7.5-3.01c-1.99-1.99-3.1-4.68-3.38-7.5v-13.36c-1.18-.41-2.59-.99-3.9-1.75-4.08-2.35-7.06-6.23-8.28-10.79-1.22-4.55-.58-9.4,1.78-13.48,2.36-4.08,6.24-7.07,10.79-8.28,4.56-1.22,9.41-.58,13.49,1.78.1.06.2.12.29.19,3.99,2.4,6.88,6.27,8.04,10.78,1.16,4.51.5,9.29-1.83,13.32-.06.1-.12.2-.18.29-2.35,3.91-6.12,6.76-10.53,7.97v13.36c.02.67,1.23.82,1.23.82h41.68v-27.02c.02-7.57,3.07-14.83,8.49-20.19,5.41-5.35,12.75-8.37,20.4-8.39h27.31v-41.67c0-.68-.56-1.23-1.24-1.24h-13.72c-1.23,4.52-4.17,8.38-8.18,10.79-.1.07-.2.13-.3.19-4.14,2.4-9.05,3.07-13.68,1.88-4.63-1.19-8.61-4.16-11.07-8.26-.07-.09-.13-.19-.19-.3-2.46-4.19-3.14-9.2-1.9-13.9,1.24-4.7,4.31-8.71,8.52-11.15,4.21-2.43,9.22-3.08,13.91-1.81,4.69,1.27,8.69,4.36,11.09,8.59.78,1.35,1.38,2.79,1.8,4.29h14.05c2.81,0,5.5,1.12,7.49,3.11,1.99,1.99,3.1,4.68,3.11,7.49v41.98h16.92l-.14-25.83c-.06-1.27.4-2.52,1.26-3.44.86-.93,2.07-1.45,3.32-1.46,1.25,0,2.46.51,3.33,1.43.87.92,1.34,2.16,1.29,3.43l.14,25.86h17.38v-51.37h.34c-1.44-.4-2.82-.98-4.12-1.72l-.08-.03c-4.06-2.34-7.02-6.18-8.24-10.7-1.22-4.52-.59-9.33,1.74-13.39l.08-.13h0C188.55,3.18,194.36-.06,200.6,0c6.24.06,11.99,3.39,15.13,8.78,3.14,5.39,3.2,12.03.17,17.48-.06.1-.12.19-.18.29h0c-2.34,3.89-6.08,6.72-10.46,7.92v51.37h16.92l.14-25.89c-.05-1.27.43-2.52,1.33-3.43.9-.92,2.15-1.44,3.45-1.43,1.3,0,2.54.53,3.44,1.46.9.93,1.37,2.17,1.31,3.44l-.14,25.85h17.06v-41.67c0-2.89,1.12-5.67,3.12-7.71,1.99-2.05,4.7-3.19,7.52-3.2h13.4c.4-1.5,1-2.95,1.76-4.3,2.36-4.2,6.25-7.27,10.82-8.52,4.57-1.26,9.43-.6,13.52,1.83,4.1,2.42,7.09,6.41,8.32,11.1,1.23,4.68.59,9.68-1.77,13.88-.06.1-.12.2-.18.3-2.41,4.11-6.29,7.08-10.81,8.27-4.52,1.2-9.32.52-13.36-1.88-.1-.06-.2-.12-.29-.19h0c-3.92-2.42-6.78-6.29-7.99-10.82h-13.76c-.67,0-1.2.54-1.21,1.2v41.71h27.31c7.65.02,14.99,3.04,20.4,8.4,5.41,5.36,8.46,12.63,8.49,20.21v27.59h42.3c.67,0,1.21-.55,1.21-1.21v-13.45c-4.42-1.21-8.21-4.08-10.57-8-.06-.1-.12-.19-.18-.29h-.28c-2.33-4.01-2.99-8.77-1.83-13.25,1.16-4.48,4.05-8.33,8.04-10.72.09-.07.19-.12.29-.18h0c5.49-3.16,12.26-3.16,17.76,0,5.5,3.16,8.88,8.99,8.88,15.31,0,6.32-3.38,12.15-8.88,15.31-1.31.76-2.71,1.34-4.17,1.75v13.29c0,2.79-1.12,5.47-3.11,7.45-1.99,1.98-4.68,3.09-7.49,3.09h-41.99v16.92l25.43-.14c1.25-.06,2.48.4,3.39,1.26.91.87,1.43,2.07,1.43,3.32,0,1.25-.5,2.46-1.41,3.33-.9.87-2.13,1.34-3.38,1.29l-25.46.14v17.38h51.98v.23c.16-1.44.74-2.84,1.48-4.14l-.27-.05v.35c2.34-3.98,6.19-6.89,10.71-8.09,4.52-1.2,9.34-.58,13.4,1.71l.13.07c5.34,3.18,8.57,8.88,8.52,15.01-.06,6.13-3.4,11.78-8.8,14.86-5.4,3.08-12.05,3.14-17.5.16-.1-.06-.2-.12-.29-.18h0c-3.89-2.3-6.73-5.97-7.93-10.27h-51.43v16.92l25.99.14h0c1.28-.05,2.53.43,3.45,1.34.92.9,1.44,2.15,1.43,3.45,0,1.3-.53,2.54-1.46,3.44-.93.9-2.18,1.37-3.46,1.31l-25.95-.14v17.06h41.98c2.81,0,5.5,1.12,7.49,3.11,1.99,1.99,3.1,4.69,3.11,7.51v13.53c1.45.4,2.84.99,4.14,1.74,4.05,2.33,7,6.18,8.21,10.69,1.21,4.51.57,9.32-1.77,13.36-2.34,4.05-6.18,7-10.69,8.21-4.51,1.21-9.32.58-13.36-1.76-.1-.06-.19-.11-.29-.18h0c-3.95-2.38-6.82-6.22-7.97-10.68-1.15-4.47-.5-9.21,1.81-13.2.06-.1.11-.19.18-.29h.24c2.33-3.88,6.07-6.71,10.43-7.9v-13.26c0-.66-.54-1.2-1.2-1.2h-42.32v27.31c-.02,7.65-3.07,14.99-8.49,20.41-5.41,5.41-12.75,8.46-20.41,8.49h-27.31v41.68c0,.67.56,1.22,1.23,1.23h13.59c1.22-4.47,4.13-8.3,8.1-10.69.1-.07.19-.13.3-.19h-.09c3.99-2.31,8.73-2.95,13.2-1.8,4.46,1.15,8.3,4.02,10.67,7.97.07.09.13.19.18.29,3.15,5.45,3.15,12.17,0,17.62-3.15,5.45-8.96,8.81-15.26,8.81-6.29,0-12.11-3.36-15.26-8.8-.76-1.3-1.34-2.69-1.74-4.14h-13.41c-2.81,0-5.5-1.12-7.49-3.1-1.99-1.99-3.1-4.68-3.11-7.48v-41.99h-16.92v26.12c-.01,1.27-.48,2.52-1.35,3.44-.88.93-2.1,1.45-3.38,1.46-1.28,0-2.5-.51-3.39-1.43-.89-.92-1.36-2.16-.95-3.43v-25.55h-17.53v51.38c1.49.4,2.92.98,4.26,1.72l.06.04c4.19,2.34,7.26,6.18,8.52,10.7,1.26,4.52.61,9.33-1.8,13.39l-.08.13h0c-3.35,5.33-9.35,8.57-15.81,8.51-6.45-.06-12.4-3.4-15.64-8.79-3.24-5.39-3.31-12.04-.17-17.49.06-.1.12-.19.19-.29,2.42-3.89,6.29-6.72,10.82-7.92v-51.99h-17.53l-.14,25.99h.45c.05,1.28-.42,2.53-1.31,3.45-.89.92-2.11,1.44-3.39,1.44-1.28,0-2.5-.53-3.38-1.46-.88-.93-1.35-2.18-1.28-3.46l.14-25.95h-17.06v42.28c0,2.89-1.15,5.67-3.2,7.71-2.05,2.05-4.82,3.19-7.71,3.2h-13.75c-.42,1.51-1.02,2.95-1.8,4.3-2.42,4.2-6.42,7.27-11.1,8.52-4.68,1.26-9.68.6-13.87-1.83-4.2-2.42-7.27-6.42-8.52-11.1-1.26-4.68-.6-9.67,1.83-13.87.06-.1.12-.2.18-.3,2.47-4.11,6.45-7.08,11.09-8.27,4.64-1.2,9.56-.52,13.71,1.88.1.06.2.12.3.19,4.02,2.41,6.96,6.29,8.2,10.81h13.76,0c.67,0,1.2-.55,1.22-1.21v-42.3h-27.32c-7.65-.02-14.99-3.09-20.41-8.52-5.41-5.44-8.46-12.81-8.48-20.5v-26.58h-41.71c-.66,0-1.2.55-1.2,1.22v13.45c4.36,1.21,8.1,4.07,10.44,8,.06.1.12.19.18.29h-.19c2.33,4.08,2.99,8.93,1.83,13.5-1.16,4.57-4.05,8.49-8.04,10.92-.09.07-.19.13-.29.19-5.5,3.22-12.27,3.22-17.77,0-5.5-3.22-8.89-9.16-8.89-15.6,0-6.43,3.38-12.38,8.88-15.6,1.31-.77,2.71-1.37,4.17-1.78v-13.54c0-2.85,1.12-5.58,3.11-7.59,1.99-2.01,4.68-3.15,7.49-3.15h41.98v-16.92h-25.54c-1.27.18-2.52-.28-3.44-1.16-.93-.88-1.45-2.1-1.46-3.37,0-1.28.51-2.5,1.43-3.39.92-.89,2.16-1.36,3.43-1.15h25.58v-17.53h-51.43c-.4,1.39-.98,2.73-1.72,3.98l-.04.06h0c-2.34,3.92-6.19,6.79-10.71,7.97-4.52,1.18-9.34.57-13.4-1.69l-.13-.08c-4.04-2.28-6.99-6.02-8.18-10.4-1.2-4.38-.55-9.04,1.8-12.95h0ZM15.54,191.61h0c-2.68.73-4.83,2.73-5.74,5.36-.91,2.62-.46,5.53,1.19,7.76,1.65,2.23,4.31,3.5,7.08,3.38,2.78-.11,5.32-1.59,6.79-3.95.09-.18.19-.35.3-.52,2.01-3.88.74-8.65-2.94-11.01-.18-.09-.36-.19-.54-.3-1.88-1.02-4.08-1.27-6.15-.71h0ZM31.31,293.19c2.32,4.02,7.46,5.4,11.48,3.09l.21-.12c3.86-2.4,5.13-7.42,2.87-11.37l-.12-.21c-2.4-3.86-7.42-5.13-11.37-2.88-4.02,2.32-5.4,7.45-3.09,11.48h0ZM36.42,102h0c-2.16.57-3.99,1.98-5.1,3.92-2.3,4.03-.91,9.17,3.12,11.49,3.95,2.25,8.97.98,11.37-2.88l.12-.21c2.26-3.94.99-8.97-2.87-11.37l-.21-.12c-1.93-1.11-4.22-1.41-6.38-.83h-.04ZM192.21,384.4h0c.72,2.68,2.73,4.83,5.36,5.74,2.63.91,5.53.46,7.76-1.19,2.23-1.66,3.5-4.31,3.38-7.09-.12-2.78-1.6-5.32-3.96-6.78-.18-.09-.35-.19-.52-.31-3.88-2.01-8.65-.73-11.01,2.94-.09.18-.19.36-.3.54-1.02,1.88-1.27,4.08-.71,6.15h0ZM294.1,368.63h0c4.02-2.33,5.39-7.46,3.08-11.48l-.12-.21c-2.4-3.86-7.42-5.13-11.36-2.87l-.22.12h0c-3.85,2.4-5.12,7.42-2.88,11.37,2.32,4.02,7.46,5.39,11.48,3.08h0ZM102.77,363.65c.57,2.15,1.98,3.99,3.91,5.1,4.03,2.3,9.15.92,11.48-3.09,2.25-3.94.98-8.96-2.88-11.37l-.22-.12h0c-3.94-2.26-8.96-.99-11.36,2.87l-.12.21c-1.11,1.93-1.41,4.22-.83,6.38h0ZM385.11,207.92h0c2.68-.72,4.83-2.73,5.75-5.36.91-2.63.46-5.53-1.19-7.76-1.66-2.23-4.32-3.5-7.09-3.38-2.78.12-5.32,1.6-6.78,3.96-.09.18-.19.35-.3.52-2.01,3.88-.74,8.65,2.94,11.01.18.09.36.19.54.3,1.88,1.01,4.08,1.27,6.15.71h0ZM369.33,105.92c-2.32-4.02-7.46-5.4-11.48-3.09l-.21.12c-3.86,2.4-5.13,7.42-2.87,11.37l.12.21c2.4,3.86,7.42,5.13,11.37,2.88,4.02-2.32,5.4-7.45,3.09-11.48h0ZM364.23,297.1c2.16-.57,3.99-1.99,5.1-3.92,2.31-4.03.92-9.16-3.1-11.48-3.95-2.25-8.97-.98-11.37,2.88l-.12.21c-2.26,3.94-.99,8.97,2.87,11.37l.21.12c1.93,1.11,4.23,1.41,6.38.83h.02ZM208.44,14.53c-.72-2.68-2.73-4.83-5.36-5.74-2.63-.91-5.53-.46-7.76,1.19-2.23,1.66-3.5,4.31-3.38,7.09.12,2.78,1.6,5.32,3.96,6.78.18.09.35.19.52.31,3.89,2.02,8.67.74,11.03-2.95.09-.18.19-.36.3-.54,1.02-1.88,1.27-4.08.71-6.15h-.02ZM297.95,35.88c-.57-2.15-1.98-3.99-3.91-5.1-4.03-2.3-9.15-.92-11.48,3.09-2.25,3.94-.98,8.96,2.88,11.37l.22.12h0c3.94,2.26,8.96.99,11.36-2.87l.12-.22h0c1.11-1.93,1.41-4.22.83-6.37h0ZM210.57,162.38c-.95,3.95-.36,8.11,1.66,11.63,2.22,3.44,5.57,6,9.47,7.24,2.43.89,5.13-.36,6.02-2.79.89-2.43-.36-5.13-2.79-6.02-1.89-.54-3.54-1.69-4.69-3.28-.78-1.55-.95-3.33-.49-4.99.49-2.54-1.17-5-3.71-5.5-2.54-.49-5,1.17-5.5,3.72h.03ZM221.08,222.43h0c.26-1.42,1.31-2.56,2.71-2.93,1.39-.37,2.87.09,3.8,1.19,1.68,1.97,4.64,2.2,6.61.52,1.97-1.68,2.2-4.64.52-6.61-2.15-2.53-5.19-4.16-8.49-4.53-3.3-.38-6.63.51-9.29,2.5-2.67,1.98-4.48,4.91-5.07,8.18-.47,2.54,1.22,4.98,3.76,5.45,2.54.47,4.98-1.22,5.45-3.76h.01ZM247.22,184.69h0c-2.46-.03-4.48-1.95-4.64-4.4-.15-2.46,1.61-4.61,4.05-4.95-.47-.86-1.06-1.65-1.75-2.35-1.92-1.92-4.52-3-7.24-3-.51,0-1.02.04-1.53.11-.49.07-.98.17-1.46.32-2.47.75-5.08-.65-5.83-3.12-.75-2.47.65-5.08,3.12-5.83.92-.28,1.87-.5,2.82-.64.95-.14,1.92-.22,2.88-.22.82,0,1.65.05,2.47.15.03-.28.21-.89.21-.89v-.02c0-1.67-.42-3.34-1.33-4.75-2.63-4.08-7.59-5.27-11.56-3.38-1.22.58-2.29,1.42-3.14,2.47-.77.98-1.91,1.61-3.15,1.75-1.24.14-2.49-.23-3.46-1.01-.97-.79-1.59-1.93-1.71-3.17-.12-1.24.26-2.48,1.06-3.45.63-.78,1.32-1.5,2.07-2.17-.41-.91-1-1.73-1.73-2.4-2.12-1.93-5.17-2.44-7.79-1.28-2.62,1.16-4.31,3.75-4.31,6.61v100.96c0,2.83,1.66,5.39,4.24,6.52,2.59,1.14,5.6.64,7.68-1.27.72-.66,1.3-1.47,1.7-2.36-1.2-1.06-2.25-2.28-3.13-3.62-.71-1.02-.98-2.29-.74-3.51.24-1.22.96-2.3,2-2.98,1.04-.68,2.32-.91,3.53-.64,1.22.27,2.27,1.03,2.92,2.09,1.4,2.15,3.66,3.58,6.2,3.93,2.54.35,5.11-.41,7.04-2.09,1.93-1.68,3.04-4.12,3.04-6.68,0-.29-.01-.58-.04-.87v-.17s-1.28.16-2.1.16c-2.47,0-4.93-.48-7.23-1.39-1.19-.43-2.15-1.33-2.67-2.48-.52-1.15-.55-2.47-.08-3.64.47-1.18,1.39-2.11,2.55-2.6,1.17-.48,2.48-.48,3.65.02.59.23,1.21.41,1.83.53.64.12,1.29.17,1.94.17.66,0,1.31-.05,1.95-.17.63-.12,1.25-.3,1.84-.54,1.91-.76,3.55-2.08,4.7-3.78.19-.28.36-.56.52-.85-2.46-.31-4.26-2.47-4.11-4.94.15-2.47,2.2-4.41,4.68-4.41,5.31,0,10.22-2.83,12.87-7.43,2.65-4.6,2.65-10.26,0-14.86-2.66-4.6-7.56-7.43-12.87-7.43h.03ZM257.06,177.3h0c-.61-4.18-2.56-8.05-5.55-11.03-.77-.78-1.61-1.48-2.5-2.12,1.49-6.15-.28-12.64-4.69-17.18-4.41-4.54-10.85-6.49-17.04-5.17-.92-1.91-2.19-3.62-3.75-5.05-3.15-2.91-7.3-4.49-11.59-4.4-4.29.09-8.38,1.84-11.4,4.88l-.19.19-.19-.19h0c-3.82-3.8-9.24-5.52-14.55-4.61-5.31.91-9.85,4.33-12.19,9.19-6.19-1.33-12.63.62-17.05,5.16-4.42,4.54-6.19,11.04-4.68,17.19-.89.64-1.73,1.34-2.5,2.12-2.99,2.98-4.93,6.85-5.54,11.03-5.76,2.55-10.29,7.25-12.65,13.08s-2.36,12.36,0,18.2c2.36,5.84,6.9,10.53,12.65,13.08.79,5.29,3.7,10.02,8.05,13.13-1.5,6.15.27,12.65,4.68,17.19,4.41,4.54,10.85,6.5,17.05,5.18.92,1.91,2.2,3.62,3.75,5.05,3.15,2.91,7.3,4.49,11.59,4.4,4.29-.09,8.37-1.84,11.4-4.88l.19-.19.19.19c3.03,3.04,7.11,4.79,11.4,4.88,4.29.09,8.44-1.49,11.59-4.4,1.56-1.44,2.83-3.15,3.75-5.05,6.2,1.34,12.65-.61,17.07-5.16,4.42-4.55,6.18-11.05,4.66-17.21,4.35-3.1,7.26-7.84,8.05-13.13,5.75-2.55,10.29-7.25,12.65-13.08,2.36-5.84,2.36-12.36,0-18.2-2.36-5.84-6.9-10.53-12.65-13.08h.01ZM181.09,165.71c.46,1.67.29,3.45-.49,4.99-1.15,1.58-2.8,2.74-4.69,3.28-1.19.41-2.16,1.29-2.69,2.42-.54,1.14-.59,2.44-.16,3.62.43,1.18,1.32,2.14,2.46,2.66,1.14.52,2.45.56,3.62.11,3.91-1.24,7.27-3.8,9.5-7.24,2.02-3.52,2.61-7.68,1.66-11.63-.58-2.45-2.99-4.01-5.46-3.53-2.47.48-4.13,2.82-3.75,5.31v.02ZM188.84,221.04c-.6-3.26-2.42-6.17-5.08-8.15-2.67-1.98-5.98-2.87-9.28-2.49-3.3.38-6.33,1.99-8.48,4.51-1.68,1.97-1.45,4.92.52,6.61,1.97,1.68,4.92,1.45,6.61-.52.93-1.1,2.42-1.57,3.81-1.18,1.39.37,2.44,1.5,2.7,2.91.47,2.54,2.91,4.23,5.45,3.76,1.22-.22,2.3-.92,3.01-1.95.7-1.02.98-2.28.75-3.5h0ZM154,175.33c2.44.34,4.2,2.5,4.04,4.95-.16,2.46-2.18,4.37-4.64,4.4-5.31,0-10.22,2.83-12.87,7.43-2.66,4.6-2.66,10.26,0,14.86,2.66,4.6,7.56,7.43,12.87,7.43,2.48,0,4.53,1.93,4.68,4.41.15,2.47-1.65,4.64-4.11,4.94.16.29.33.58.52.85,1.15,1.7,2.79,3.02,4.7,3.78.59.24,1.21.41,1.84.53.64.12,1.3.18,1.95.17.65,0,1.3-.05,1.94-.17.63-.12,1.24-.29,1.83-.53,2.38-.87,5.02.32,5.95,2.67.93,2.35-.17,5.02-2.5,6.02-2.3.91-4.75,1.39-7.23,1.4-.82,0-1.65-.05-2.47-.16-.03.3-.04.59-.04.89,0,2.61,1.13,5.09,3.1,6.8,1.97,1.71,4.58,2.49,7.16,2.13,2.58-.36,4.88-1.82,6.31-4.01.66-1.08,1.74-1.85,2.97-2.12,1.24-.28,2.54-.04,3.6.65,1.06.69,1.8,1.79,2.04,3.03.24,1.25-.03,2.54-.76,3.58-.89,1.36-1.96,2.6-3.18,3.68.41.91,1,1.73,1.73,2.41,2.12,1.93,5.18,2.43,7.81,1.28,2.63-1.16,4.32-3.75,4.33-6.62v-101c0-2.88-1.69-5.48-4.32-6.64-2.63-1.16-5.7-.65-7.81,1.3-.74.68-1.32,1.5-1.73,2.41.75.67,1.44,1.39,2.07,2.17,1.63,2,1.33,4.95-.68,6.58-2,1.63-4.95,1.33-6.58-.68-.85-1.05-1.93-1.89-3.15-2.47-4.03-1.92-9.06-.68-11.67,3.52-.85,1.37-1.24,2.98-1.24,4.6,0,.3,0,.6.04.91.82-.1,1.64-.15,2.47-.15,1.93,0,3.86.3,5.7.86,2.47.75,3.87,3.36,3.12,5.83-.75,2.47-3.36,3.87-5.83,3.12-.48-.14-.97-.25-1.46-.32-.51-.07-1.02-.11-1.52-.11-2.71,0-5.32,1.07-7.24,3-.69.69-1.28,1.48-1.75,2.35h.02ZM136.29,112.43c-6.07.01-11.88,2.43-16.18,6.72-4.29,4.29-6.71,10.11-6.72,16.18v128.26c.01,6.07,2.43,11.88,6.72,16.18,4.29,4.29,10.11,6.71,16.18,6.72h128.26c6.07-.01,11.88-2.43,16.18-6.72,4.29-4.29,6.71-10.11,6.72-16.18v-128.26c-.01-6.07-2.43-11.88-6.72-16.18-4.29-4.29-10.11-6.71-16.18-6.72h-128.26ZM264.27,122.1h-128.29c-3.58.02-7.01,1.45-9.54,3.98-2.53,2.53-3.96,5.96-3.98,9.54v128.29c.02,3.58,1.45,7.01,3.98,9.54,2.53,2.53,5.96,3.96,9.54,3.98h128.29c3.58-.02,7.01-1.45,9.54-3.98s3.96-5.96,3.98-9.54v-128.29c-.02-3.58-1.45-7.01-3.98-9.54-2.53-2.53-5.96-3.96-9.54-3.98ZM285.53,94.91H115.33c-5.16.02-10.09,2.07-13.74,5.72-3.65,3.65-5.7,8.58-5.72,13.74v170.2c.02,5.16,2.07,10.09,5.72,13.74,3.65,3.64,8.58,5.7,13.74,5.72h170.2,0c5.16-.02,10.09-2.07,13.74-5.72,3.64-3.65,5.7-8.58,5.72-13.74V114.36c-.02-5.15-2.07-10.09-5.72-13.74-3.64-3.64-8.58-5.7-13.74-5.71h0Z" fill="#0572af" fill-rule="evenodd"/>
  </g>
</svg>